<?xml version="1.0" encoding="utf-8"?>
<!-- Generator: Adobe Illustrator 19.0.1, SVG Export Plug-In . SVG Version: 6.00 Build 0)  -->
<svg version="1.1" id="Layer_1" xmlns="http://www.w3.org/2000/svg" xmlns:xlink="http://www.w3.org/1999/xlink" x="0px" y="0px"
	 viewBox="0 0 104.8 19.9" style="enable-background:new 0 0 104.8 19.9;" xml:space="preserve">
<style type="text/css">
	.st0{fill:#FFFFFF;}
</style>
<g>
	<g>
		<path class="st0" d="M56.4,7.3c1.1,0,2.2,0,3.2,0c0.2,0,0.3,0,0.3,0.2c0.2,1.8,0,3.5-1,5c-1.3,1.9-3.1,2.9-5.4,3
			c-3,0.2-5.5-1-7.1-3.6c-2.4-3.7-1-8.7,3-10.7c2.9-1.4,6.1-1,8.4,1c0.2,0.2,0.3,0.3,0,0.5c-0.4,0.3-0.7,0.7-1.1,1.1
			c-0.1,0.1-0.2,0.1-0.4,0c-3-2.5-7.5-1.3-8.7,2.5c-0.9,2.9,0.6,6,3.5,7c2.1,0.7,4,0.3,5.6-1.3c0.6-0.6,0.9-1.5,1-2.3
			c0-0.2-0.1-0.2-0.2-0.2c-1.3,0-2.6,0-3.9,0c-0.8,0-0.8,0-0.8-0.8c0-0.3,0-0.7,0-1c0-0.3,0.1-0.3,0.3-0.3
			C54.3,7.3,55.4,7.3,56.4,7.3z"/>
		<path class="st0" d="M89.3,14.4c-0.2,0.2-0.4,0.4-0.6,0.5c-1.1,0.7-2.3,0.8-3.5,0.4c-2.1-0.7-3.4-2.8-3.2-5c0.1-2.1,1.7-4,3.8-4.4
			c1.2-0.3,2.4,0,3.3,0.9c0,0,0.1,0,0.1,0.1c0,0,0,0,0.1,0c0-0.2,0-0.3,0-0.5c0-0.2,0.1-0.2,0.2-0.2c0.5,0,1,0,1.6,0
			c0.2,0,0.2,0.1,0.2,0.2c0,3.1,0,6.1,0,9.2c0,1.4-0.5,2.7-1.7,3.6c-2.3,1.8-6,0.8-7.1-1.8c-0.1-0.2,0-0.2,0.1-0.3
			c0.5-0.2,0.9-0.4,1.4-0.6c0.2-0.1,0.3,0,0.4,0.2c0.8,1.5,2.3,1.8,3.5,1.2c0.9-0.4,1.3-1.1,1.4-2C89.4,15.3,89.4,14.9,89.3,14.4z
			 M84.2,10.7c0,0.4,0.1,0.8,0.2,1.2c0.4,1,1.2,1.7,2.3,1.8c1,0.1,1.8-0.4,2.3-1.2c0.7-1.1,0.6-2.3,0-3.5c-0.8-1.3-2.4-1.6-3.6-0.7
			C84.6,8.8,84.2,9.6,84.2,10.7z"/>
		<path class="st0" d="M76.3,5.8c2.8,0,4.9,2.1,4.9,4.9c0,2.7-2.2,4.9-4.9,4.9c-2.8,0-4.9-2.1-5-4.8C71.3,7.9,73.5,5.8,76.3,5.8z
			 M76.2,13.6c0.5,0,0.9-0.1,1.3-0.3c1.4-0.8,1.9-2.6,1.1-4.1c-0.8-1.5-2.7-1.9-4-0.9c-1,0.7-1.3,1.8-1.1,3
			C73.8,12.6,74.9,13.6,76.2,13.6z"/>
		<path class="st0" d="M65.6,15.5c-2.7,0-4.9-2.1-4.9-4.8c0-2.8,2.1-4.9,4.8-4.9c2.8,0,4.9,2.1,5,4.8C70.5,13.4,68.4,15.5,65.6,15.5
			z M68.4,10.7c0-0.2,0-0.4-0.1-0.6C68,8,65.7,7,64,8.2c-1,0.8-1.3,1.8-1.1,3.1c0.2,1.5,1.6,2.5,3.2,2.3
			C67.4,13.4,68.4,12.1,68.4,10.7z"/>
		<path class="st0" d="M100.7,15.5c-2.7,0-4.7-2-4.8-4.7c0-1.5,0.4-2.9,1.5-3.9c1.7-1.6,5-1.8,6.7,1.1c0.2,0.4,0.4,0.8,0.6,1.2
			c0.1,0.2,0,0.3-0.2,0.3c-2,0.8-4,1.6-6,2.5c-0.3,0.1-0.3,0.1-0.1,0.4c1,1.6,3.3,1.6,4.4,0c0.1-0.2,0.2-0.2,0.4-0.1
			c0.4,0.3,0.8,0.6,1.3,0.8c0.1,0.1,0.1,0.2,0,0.3C103.7,14.8,102.4,15.5,100.7,15.5z M98,10.3c0,0.1,0,0.3,0.2,0.2
			c1.3-0.6,2.7-1.1,4-1.7c0.2-0.1,0.2-0.1,0.1-0.3c-0.3-0.4-0.6-0.6-1.1-0.8C99.6,7.3,98.1,8.5,98,10.3z"/>
		<path class="st0" d="M95,8.1c0,2.3,0,4.6,0,6.9c0,0.2-0.1,0.3-0.3,0.3c-0.5,0-1.1,0-1.6,0c-0.2,0-0.3-0.1-0.3-0.3
			c0-3.7,0-7.5,0-11.2c0-0.9,0-1.7,0-2.6c0-0.2,0.1-0.3,0.3-0.3c0.5,0,1.1,0,1.6,0c0.2,0,0.3,0.1,0.3,0.3C95,3.5,95,5.8,95,8.1z"/>
	</g>
	<g>
		<path class="st0" d="M2,15.1V7H0.5V5.8H2v-1c0-1,0.3-1.8,0.8-2.3C3.3,2,4.1,1.7,5.1,1.7c0.4,0,0.7,0,1.1,0.1L6.1,3.1
			C5.8,3.1,5.5,3,5.2,3C4.7,3,4.3,3.2,4,3.5C3.7,3.8,3.6,4.2,3.6,4.8v1h2V7h-2v8.1H2z"/>
		<path class="st0" d="M11.9,7.2c-0.2,0-0.5-0.1-0.8-0.1c-1,0-1.8,0.4-2.1,1.3v6.6H7.4V5.8h1.6l0,1.1c0.5-0.8,1.3-1.3,2.2-1.3
			c0.3,0,0.5,0,0.7,0.1V7.2z"/>
		<path class="st0" d="M12.6,10.4c0-0.9,0.2-1.7,0.5-2.5c0.4-0.7,0.9-1.3,1.5-1.7s1.4-0.6,2.2-0.6c1.3,0,2.3,0.4,3.1,1.3
			s1.2,2.1,1.2,3.5v0.1c0,0.9-0.2,1.7-0.5,2.5c-0.3,0.7-0.8,1.3-1.5,1.7c-0.6,0.4-1.4,0.6-2.2,0.6c-1.3,0-2.3-0.4-3.1-1.3
			c-0.8-0.9-1.2-2-1.2-3.5V10.4z M14.2,10.6c0,1,0.2,1.9,0.7,2.5s1.1,0.9,1.9,0.9c0.8,0,1.5-0.3,1.9-1c0.5-0.6,0.7-1.5,0.7-2.7
			c0-1-0.2-1.9-0.7-2.5c-0.5-0.6-1.1-1-1.9-1c-0.8,0-1.4,0.3-1.9,0.9C14.5,8.5,14.2,9.4,14.2,10.6z"/>
		<path class="st0" d="M24.7,5.8l0,1c0.7-0.8,1.6-1.2,2.8-1.2c1.3,0,2.2,0.5,2.7,1.5c0.3-0.4,0.7-0.8,1.2-1.1
			c0.5-0.3,1.1-0.4,1.8-0.4c2.1,0,3.1,1.1,3.1,3.3v6.3h-1.6V9c0-0.7-0.2-1.2-0.5-1.5C33.9,7.1,33.4,7,32.7,7c-0.6,0-1.1,0.2-1.5,0.5
			c-0.4,0.4-0.6,0.8-0.7,1.4v6.2h-1.6V9c0-1.4-0.7-2-2-2c-1,0-1.8,0.4-2.2,1.3v6.8h-1.6V5.8H24.7z"/>
	</g>
</g>
</svg>
